<?xml version="1.0" encoding="utf-8"?>
<!-- Generator: Adobe Illustrator 25.4.0, SVG Export Plug-In . SVG Version: 6.00 Build 0)  -->
<svg version="1.1" id="Layer_2" xmlns="http://www.w3.org/2000/svg" xmlns:xlink="http://www.w3.org/1999/xlink" x="0px" y="0px"
	 viewBox="0 0 125 40" style="enable-background:new 0 0 125 40;" xml:space="preserve">
<style type="text/css">
	.st0{fill-rule:evenodd;clip-rule:evenodd;fill:#25D1DA;}
	.st1{opacity:0.5;}
	.st2{fill-rule:evenodd;clip-rule:evenodd;fill:#15191A;}
	.st3{fill:none;}
</style>
<g>
	<g>
		<g id="App-icon---App-Store-1024px">
			<path id="base-rounded" class="st0" d="M7.1738596,3.81915h18.0140572c3.9632263,0,7.1738205,3.2105966,7.1738205,7.1738214
				v18.0140572c0,3.9632244-3.2105942,7.1738224-7.1738205,7.1738224H7.1738596
				c-3.9632249,0-7.1738214-3.210598-7.1738214-7.1738224V10.9929714C0.0000381,7.0297465,3.2106347,3.81915,7.1738596,3.81915z"/>
			<g id="base-rounded-2" class="st1">
				<g>
					<defs>
						<path id="SVGID_1_" d="M7.1738596,3.81915h18.0140572c3.9619923,0,7.1738205,3.2118292,7.1738205,7.1738214v18.0140572
							c0,3.9619923-3.2118282,7.1738224-7.1738205,7.1738224H7.1738596c-3.9619925,0-7.1738214-3.2118301-7.1738214-7.1738224
							V10.9929714C0.0000381,7.0309792,3.2118671,3.81915,7.1738596,3.81915z"/>
					</defs>
					<clipPath id="SVGID_00000090288105296734159920000003438842450320925861_">
						<use xlink:href="#SVGID_1_"  style="overflow:visible;"/>
					</clipPath>
				</g>
			</g>
		</g>
		<path id="music-logo" class="st2" d="M20.0679226,19.2347832c0.1576805-0.1205807,0.2398338-0.2901859,0.2398338-0.518095
			c0-0.1510563-0.0477028-0.2742844-0.1457558-0.3670387c-0.0980549-0.0954037-0.271637-0.1894817-0.5313454-0.2848854
			l-0.7963543-0.300787c-0.695652-0.2597084-1.0401649-0.6982994-1.0401649-1.3210735
			c0-0.4081173,0.1576805-0.7393789,0.474369-0.9898138c0.3166866-0.2530851,0.7301006-0.3763132,1.2415714-0.3763132
			c0.4081154,0,0.8029785,0.0728779,1.1912193,0.2186337c0.0755291,0.025176,0.1298542,0.0569763,0.1576824,0.098053
			c0.0318012,0.0410767,0.0477009,0.1007042,0.0477009,0.1828566v0.2557344c0,0.1139545-0.0410767,0.1709328-0.1232281,0.1709328
			c-0.0437279,0-0.1166058-0.0159016-0.2146568-0.0477028c-0.3312626-0.1007042-0.670475-0.1510553-1.0110149-0.1510553
			c-0.6002464,0-0.9010334,0.2053823-0.9010334,0.6134977c0,0.1643066,0.0503521,0.2941608,0.1510544,0.3855896
			c0.1007042,0.0954037,0.2968121,0.1987572,0.5909729,0.3127117l0.7301025,0.2848873
			c0.369688,0.1457539,0.6346989,0.3166866,0.7963543,0.5154438c0.1616573,0.1987572,0.2438087,0.4544926,0.2438087,0.7685299
			c0,0.4452171-0.1643066,0.8029804-0.4955692,1.06534s-0.7711811,0.394865-1.3210754,0.394865
			s-0.9951115-0.0887775-1.4151516-0.2650089c-0.0755291-0.0318012-0.1258793-0.0662537-0.1550312-0.1046791
			c-0.0278263-0.0384274-0.0410767-0.0980549-0.0410767-0.1802082v-0.2650089c0-0.1139545,0.0384254-0.1709328,0.1139545-0.1709328
			c0.0437279,0,0.1232281,0.0185509,0.2332077,0.0569782c0.4134159,0.1325054,0.8400822,0.1987572,1.28265,0.1987572
			c0.3034363,0,0.5339947-0.0596275,0.695652-0.1802063L20.0679226,19.2347832z M15.9178658,15.4040632
			c0-0.1258802,0.0636024-0.1894827,0.1868324-0.1894827h0.5525475c0.1258793,0,0.1868324,0.0636024,0.1868324,0.1894827v4.4057913
			c0,0.1258793-0.0636024,0.1894817-0.1868324,0.1894817h-0.4041424c-0.0636024,0-0.1099777-0.0132504-0.1457539-0.0384254
			c-0.0344524-0.025177-0.0569782-0.0728779-0.068903-0.1417809l-0.0662527-0.3286133
			c-0.5816965,0.4332905-1.1792946,0.6506004-1.7888174,0.6506004c-0.4425659,0-0.7831049-0.1258793-1.0202885-0.3763142
			c-0.2371836-0.2530842-0.3577633-0.6068726-0.3577633-1.06534v-3.2967243c0-0.1258793,0.0636034-0.1894827,0.1868334-0.1894827
			h0.5525455c0.1258793,0,0.1868324,0.0636034,0.1868324,0.1894827v2.9893131c0,0.3378887,0.0662527,0.5883217,0.1961079,0.7486534
			c0.1325045,0.1616554,0.3418627,0.2398338,0.6293983,0.2398338c0.449192,0,0.9036846-0.1510563,1.3595018-0.4518433V15.401412
			h0.0026503L15.9178658,15.4040632z M10.8892994,19.9993362c-0.1258793,0-0.1868324-0.0636024-0.1868324-0.1894817v-3.0555649
			c0-0.3166866-0.0596266-0.547245-0.177556-0.6983013c-0.1166039-0.1510553-0.3060865-0.2239342-0.5631466-0.2239342
			c-0.4544926,0-0.916934,0.1417809-1.3780527,0.424015c0.0066261,0.0437279,0.0092754,0.0914288,0.0092754,0.1417809v3.4133301
			c0,0.1258793-0.0636024,0.1894817-0.1868324,0.1894817H7.8536091c-0.1258798,0-0.186832-0.0636024-0.186832-0.1894817v-3.0555649
			c0-0.3166885-0.0596275-0.5472469-0.177557-0.6983013c-0.1205792-0.1510563-0.3060865-0.2239342-0.5631461-0.2239342
			c-0.4743681,0-0.9328356,0.1391306-1.3687773,0.4134159v3.5643845c0,0.1258793-0.0636024,0.1894836-0.186832,0.1894836h-0.552546
			c-0.1258802,0-0.1868324-0.0636044-0.1868324-0.1894836v-4.4057913c0-0.1258793,0.0636024-0.1894817,0.1868324-0.1894817
			h0.4107652c0.0636024,0,0.1099796,0.0132504,0.1457553,0.0384264c0.034451,0.025176,0.0569773,0.0728779,0.0689025,0.1417799
			l0.0569773,0.300786c0.6002479-0.4134159,1.1845946-0.6227732,1.7543669-0.6227732s0.9739118,0.2239342,1.1819444,0.670475
			c0.6187983-0.4452162,1.2362719-0.670475,1.8550701-0.670475c0.4293165,0,0.7619038,0.12323,0.9924622,0.3670387
			c0.2305584,0.246459,0.3471642,0.5936232,0.3471642,1.0454645v3.3245506c0,0.1258793-0.0636034,0.1894836-0.1868324,0.1894836
			h-0.5591717L10.8892994,19.9993362z M25.303196,23.5451717c0.4359398-0.1868324,0.7990036,0.2875347,0.3723373,0.6068726
			c-2.5758972,1.909399-6.3045883,2.9270363-9.5191593,2.9270363c-4.5038462,0-8.5611496-1.6748638-11.6299648-4.4654198
			c-0.1921325-0.1735802-0.0954041-0.398838,0.0980539-0.398838c0.0503521,0,0.1073289,0.0158997,0.1669559,0.0503521
			c3.30865,1.9398727,7.4043798,3.105917,11.6326151,3.105917c2.8541584,0,5.9892273-0.5936222,8.8778362-1.8272419
			L25.303196,23.5451717z M25.2051411,16.2799206c-0.2305603,0.2689857-0.3471622,0.6916771-0.3471622,1.2799988v0.12323
			c0,0.572422,0.1166039,0.9924622,0.3511372,1.257473c0.2332077,0.2689838,0.6042233,0.4014893,1.109066,0.4014893
			c0.2623596,0,0.543272-0.043726,0.8440571-0.1325054c0.068903-0.018549,0.1166039-0.0278244,0.1391296-0.0278244
			c0.0821533,0,0.1205807,0.0636024,0.1205807,0.1894817v0.2557354c0,0.0821533-0.0132523,0.1417789-0.0384254,0.1802063
			c-0.0251751,0.0384254-0.0755291,0.0728779-0.1484051,0.1046791c-0.3060856,0.1325054-0.6638489,0.1987572-1.0679913,0.1987572
			c-0.7367268,0-1.3025246-0.2120075-1.6907616-0.6346989c-0.3922157-0.424015-0.5843487-1.0401649-0.5843487-1.8457947
			c0-0.8056316,0.2027321-1.4151535,0.6042233-1.8550711c0.4041405-0.4359417,0.9739113-0.6545744,1.7093143-0.6545744
			c0.3378868,0,0.670475,0.0596266,0.9924622,0.1802063c0.068903,0.025176,0.1166058,0.0569773,0.1457558,0.0954037
			c0.0278282,0.0384274,0.0410767,0.1007042,0.0410767,0.1894827v0.2557344c0,0.1258793-0.0410767,0.1894817-0.1232281,0.1894817
			c-0.0318012,0-0.0821533-0.0092754-0.1484051-0.0278244c-0.2557335-0.0755291-0.5154438-0.1139555-0.7778034-0.1139555
			c-0.518095-0.0092754-0.8970604,0.123229-1.1276169,0.3922148L25.2051411,16.2799206z M26.3897362,26.0256653
			c-0.2120094,0.1802063-0.4134159,0.0821533-0.3193378-0.1510563c0.3100605-0.7804527,1.0083637-2.5281944,0.6757755-2.9548607
			c-0.3286114-0.424017-2.1770573-0.202734-3.0052147-0.1007042c-0.2530842,0.0318031-0.2901859-0.1894817-0.0636005-0.3511372
			c0.7619038-0.5366459,1.7729168-0.7168522,2.612999-0.7168522c0.7870789,0,1.4191284,0.1576805,1.5542831,0.3259621
			c0.2809105,0.3511391-0.0755291,2.7879066-1.4562321,3.9499741L26.3897362,26.0256653z M22.7233219,15.2172308
			c0.1258793,0,0.1868324,0.0636034,0.1868324,0.1894827v4.4018173c0,0.1258793-0.0636005,0.1894817-0.1868324,0.1894817h-0.5525455
			c-0.1258793,0-0.1868324-0.0636024-0.1868324-0.1894817v-4.4057922c0-0.1258793,0.0636024-0.1894827,0.1868324-0.1894827
			h0.5525455v0.0026503V15.2172308z M22.8783531,13.389987c0.1046772,0.1046791,0.1550312,0.2398338,0.1550312,0.4107656
			c0,0.1709309-0.050354,0.3060856-0.1550312,0.4107647c-0.1046791,0.1046791-0.24646,0.1550312-0.4266663,0.1550312
			s-0.3219872-0.0503521-0.4266663-0.1550312c-0.104681-0.1046791-0.1550312-0.2398338-0.1550312-0.4107647
			c0-0.1709318,0.0503521-0.3060865,0.1550312-0.4107656c0.1046772-0.1046791,0.24646-0.1550312,0.4266663-0.1550312
			S22.7776508,13.2853079,22.8783531,13.389987z"/>
	</g>
	<g>
		<path d="M40.349144,16.0334625h2.2525826l3.0529175,8.6843796h-2.2287331l-0.4849701-1.5264587h-2.895237l-0.4717178,1.5264587
			H37.345253L40.349144,16.0334625z M42.3592453,21.3999157l-0.8957367-2.8223591l-0.8718796,2.8223591h1.7689438H42.3592453z"/>
		<path d="M46.1038361,17.6924248h1.8537407l0.1934586,1.1024418c0.36306-0.7632294,1.0653419-1.2481976,2.0591278-1.2481976
			c1.0785942,0,1.757019,0.4597931,2.0710564,1.2839737c0.36306-0.7870789,1.0785904-1.2839737,2.1081543-1.2839737
			c1.5503082,0,2.3493156,0.9686127,2.3493156,2.6646748v4.5064964H54.533802v-3.8519211
			c0-0.848032-0.2186317-1.4178028-0.9937859-1.4178028s-1.0057144,0.5816975-1.0057144,1.4416561v3.8280697H50.329422v-3.8757725
			c0-0.7990055-0.1934586-1.3926277-0.9686127-1.3926277s-1.0414886,0.6174736-1.0414886,1.5503101v3.7180901h-2.2168083v-7.0254173
			H46.1038361z"/>
		<path d="M57.4780655,23.0098515c0-0.8480301,0.3511353-1.3926258,0.9209099-1.7437668
			c0.5578461-0.3511372,1.0653419-0.4478664,2.2048836-0.6293983c1.0653419-0.1457558,1.5026054-0.2663345,1.5026054-0.714201
			c0-0.4001656-0.2424812-0.6784267-0.9937897-0.6784267c-0.7513046,0-1.1501427,0.3630638-1.1753159,1.0176392h-2.2406616
			c0.108654-1.6351128,1.2230225-2.7137032,3.4159775-2.7137032c2.3254623,0,3.1615715,1.06534,3.1615715,2.6885262v4.4813213
			h-1.8166389l-0.2544136-1.1633949c-0.4001617,0.775156-1.1501427,1.3449249-2.4592934,1.3449249
			c-1.5264549,0-2.2645111-0.7261257-2.2645111-1.8895206H57.4780655z M62.1170654,21.8954849v-0.424017
			c-0.2053795,0.1576824-0.5326691,0.2544098-0.9447594,0.3272877c-0.6055489,0.1086559-0.8361053,0.1696072-1.0534172,0.3153629
			c-0.1934547,0.1457558-0.2901878,0.3153629-0.2901878,0.557848c0,0.4120903,0.2782631,0.6174736,0.8109322,0.6174736
			c0.8838081,0,1.4774284-0.7022781,1.4774284-1.3926277L62.1170654,21.8954849z"/>
		<path d="M65.0494003,23.0708027l3.5127106-3.5617332h-3.319252v-1.8166447h6.0316315v1.7437668l-3.3550262,3.4279041h3.3788757
			v1.8537464h-6.2502594v-1.6470375L65.0494003,23.0708027z"/>
		<path d="M71.7607803,21.3747406v-0.2186317c0-2.3864155,1.4774323-3.6094379,3.5498047-3.6094379
			s3.5365601,1.2601242,3.5365601,3.6094379v0.2186317c0,2.337389-1.4045486,3.5246334-3.5498047,3.5246334
			C73.019577,24.899374,71.7607803,23.7121296,71.7607803,21.3747406z M76.6541901,21.3508911v-0.1934586
			c0-1.1501446-0.4849625-1.7437668-1.3330002-1.7437668s-1.3687744,0.5697727-1.3687744,1.7437668v0.1934586
			c0,1.0785904,0.5445938,1.6470375,1.3568497,1.6470375s1.3449249-0.5445957,1.3449249-1.6470356V21.3508911z"/>
		<path d="M79.730957,17.6924248h1.877594l0.2053757,1.1991711c0.3630676-0.8241806,1.0905151-1.3449268,2.1810379-1.3449268
			c1.562233,0,2.3864136,1.0057144,2.3864136,2.7017765v4.4693947h-2.2287292v-3.8399963
			c0-0.8718815-0.2186432-1.4297276-1.0295715-1.4297276s-1.1501389,0.6293983-1.1501389,1.5993347v3.6703892h-2.2406616v-7.0254173
			L79.730957,17.6924248z"/>
		<path d="M90.8998032,16.0334625h2.0101013l2.120079,3.0277405l2.120079-3.0158157h1.9862518v8.6724548h-2.120079v-5.2816505
			l-1.877594,2.6408253h-0.2782593l-1.8418198-2.6169739v5.2564735h-2.120079v-8.6843777L90.8998032,16.0334625z"/>
		<path d="M100.2149048,22.1618195v-4.4693947h2.2048874v3.8161449c0,0.8599586,0.1934586,1.4297276,0.980545,1.4297276
			c0.7870789,0,1.0653305-0.6413231,1.0653305-1.5860844v-3.6584644h2.2406616v7.0254173h-1.8656769l-0.2053757-1.1872463
			c-0.3511429,0.8109303-1.0414886,1.3197517-2.0949097,1.3197517c-1.5622253,0-2.3254623-0.981863-2.3254623-2.6885262V22.1618195z
			"/>
		<path d="M107.2893524,22.3685284h2.2777634c0.145752,0.5936222,0.5816956,0.8599586,1.2958984,0.8599586
			c0.7142105,0,0.9937897-0.2305603,0.9937897-0.6174736c0-0.4849701-0.7632294-0.5445957-1.6351166-0.6545753
			c-1.2110977-0.1576824-2.6408234-0.424017-2.6408234-2.0949039c0-1.3687782,1.078598-2.3254642,3.0648422-2.3254642
			c2.1081543,0,3.0529175,0.9447613,3.2702255,2.3493137h-2.167778c-0.0967331-0.4849682-0.4597931-0.7513027-1.126297-0.7513027
			s-0.9209137,0.2544079-0.9209137,0.5936222c0,0.4359417,0.5936203,0.5088196,1.6351166,0.641325
			c1.2110977,0.1576805,2.6646729,0.4597931,2.6646729,2.0949039c0,1.4045544-1.0653381,2.4341164-3.2463684,2.4341164
			c-2.1810379,0-3.2344437-0.9089851-3.4650116-2.5321712V22.3685284z"/>
		<path d="M114.5943527,16.2017441c0-0.8241816,0.4359436-1.1024418,1.3197556-1.1024418s1.3197556,0.2782602,1.3197556,1.1024418
			c0,0.8241806-0.4240189,1.0905151-1.3197556,1.0905151C114.9454956,17.2922592,114.5943527,17.0259247,114.5943527,16.2017441z
			 M114.7639618,17.7401276c0.2544098,0.0848026,0.6294022,0.1338291,1.1501465,0.1338291s0.8718872-0.0609512,1.1382217-0.1457539
			v6.9896393h-2.2896881v-6.9763908L114.7639618,17.7401276z"/>
		<path d="M117.9255219,21.3747406v-0.2186317c0-2.3864155,1.489357-3.6094379,3.5498123-3.6094379
			c2.0604477,0,3.4279022,0.9686127,3.5127106,3.1125431v0.035778h-2.2896957v-0.0490265
			c-0.072876-0.8599586-0.4849625-1.2349472-1.2110977-1.2349472c-0.8109283,0-1.3197479,0.5697727-1.3197479,1.7437649v0.1934586
			c0,1.0785904,0.5088196,1.6470394,1.3078232,1.6470394c0.72612,0,1.1633987-0.4001675,1.2349472-1.2839756v-0.0238495h2.2896881
			v0.0609531c-0.0848083,2.2048836-1.489357,3.0886917-3.5365601,3.0886917c-2.2645111,0-3.5365601-1.1262932-3.5365601-3.4636803
			L117.9255219,21.3747406z"/>
	</g>
</g>
<rect class="st3" width="125" height="40"/>
</svg>
