<svg class="svg-icon" viewBox="16.6 354.1 341.7 84.9" xmlns="http://www.w3.org/2000/svg">
<path fill="#f1f1f1" d="M76.5 360.8c0-3.7 3-6.6 6.6-6.6s6.6 3 6.6 6.6c0 3.7-3 6.6-6.6 6.6-3.7 0-6.6-3-6.6-6.6zm274.6 48.7c-.6-.4-.9-1.2-.9-2.3V355h-15.7v9.1h5.5v44.3c0 7.3 3.9 11.1 11.1 11.1 1.8 0 4.2-.4 7.2-1.4v-9.4c-4.7 1.8-6.5 1.3-7.2.8zm-262.5.2h5v9.1H73.4v-9.1h5v-27.1h-5.6v-9.1h15.8v36.2zM50 372.2c-6 0-10.8 2-15.2 6.3v-23.6H19v9.1h5.6v43.1c0 1.1-.3 1.9-.9 2.3-1.5 1.1-5.2-.1-7.2-.8v9.4c3.2 1 5.3 1.4 7.1 1.4 4.6 0 7.8-1.5 9.5-4.5 3.9 3 9 4.5 14.9 4.5 14.1 0 23.9-9.8 23.9-23.9.2-13.4-9.1-23.3-21.9-23.3zm-2 38.2c-7.5 0-13-6-13-14.2 0-8.6 5.4-14.7 13.2-14.7 6.3 0 13.1 4.4 13.1 13.9 0 8.7-5.6 15-13.3 15zm240.1-1.7v9.4s-4.1 1.4-7.1 1.4c-7.3 0-11.1-3.9-11.1-11.1v-42.8l10.2-6.5v14.4h13.3l-6.6 9.1h-6.6v24.6c0 1.1.3 1.9.9 2.3 1.8 1.4 7-.8 7-.8zm-170.3-36.5c-13.5 0-23.4 10.2-23.4 24.1 0 13.5 9.3 23.3 22.1 23.3 5.7 0 11.4-2.4 15.1-6.2v4.8c0 9.2-8.4 11.7-13.4 11.7-3.7 0-7.5-1.2-10.9-3.6l-8.2 6.2c6.1 4.7 11.3 6.5 18.4 6.5 11.2 0 24.2-5.5 24.2-21.1v-21.6c.1-13.8-10.2-24.1-23.9-24.1zm.4 38.3c-7.6 0-13-5.9-13-14.4 0-8.3 5.5-14.3 13.2-14.3 7.6 0 13.4 6.1 13.4 14.3-.1 8.2-5.9 14.4-13.6 14.4zm217.7-12.2c0-17.1-12-26.1-23.9-26.1-11.3 0-22.9 9-22.9 23.9 0 13.4 10.7 23.9 24.3 23.9 8.2 0 14.9-2.8 19.9-9l-7.7-5.8c-3.2 3.9-7.3 5.7-12 5.7-7 0-12-3.8-13.8-10.5h35.9s.2-.9.2-2.1zm-36-7.1c1.5-6.4 6.2-10.6 12.4-10.6 6.6 0 11.7 4.1 13.2 10.6h-25.6zm-53.5-10v-7.7h-14v9.1h5.6v27.1h-8.2c-1 0-1.7-.2-2.1-.7-.4-.4-.7-1.2-.7-2.2v-19.5c0-4.4-2.3-15.2-19.3-15.2-7.7 0-12.7 3-14.4 4l4.1 7.6c1.1-.7 4.7-2.9 10.4-2.7 2.4.1 4.6.6 6.2 1.7 1.9 1.3 2.8 3.5 2.8 6v4.2c-3.4-1.9-7.6-3.1-11.2-3.1-9 0-13.6 5.5-18.1 10.9-4.5 5.4-8.8 10.3-17.4 9.9-7.9-.3-12.7-6.3-12.7-15 0-8.1 5.1-13.4 12.4-13.6 8.1-.3 12.2 6.6 12.9 10.8l8.6-6.4c-2.9-7.3-9.9-14.5-22-14.2-12.7.4-22.6 10.4-22.6 23.6 0 11.7 7.3 24.3 23.1 24.3 10.1 0 16-4.5 20.4-9.3 2.4 5.3 7.9 8.7 14.2 8.7 4.7 0 8.5-1.6 13.7-5.6 1.7 3.2 5 4.9 9.8 4.9h25.9v-9.1h-5.6v-10.9c0-11.2 3.8-16.2 12.4-16.2 2.1 0 3.9.6 5.1 1.1v-9.3c-1.1-.4-3-.9-6.1-.9-5.7 0-10.4 2.8-13.2 7.7zm-29.5 25.3c-3.4 3-7.5 4.8-11 4.8-4.2 0-7.1-2.7-7.1-6.5 0-3.9 3.2-6.8 7.6-6.8 3.5 0 7.1 1.4 10.6 4-.1.7-.1 4-.1 4.5z"></path>
</svg>
