<svg id="Layer_1" data-name="Layer 1" xmlns="http://www.w3.org/2000/svg" xmlns:xlink="http://www.w3.org/1999/xlink" viewBox="0 0 600 600"><defs><style>.cls-1{fill:none;}.cls-2{clip-path:url(#clip-path);}.cls-3{fill:#25f4ee;}.cls-4{fill:#fe2c55;}.cls-5{fill:#fff;}</style><clipPath id="clip-path"><rect class="cls-1" width="600" height="600"/></clipPath></defs><title>tiktok</title><rect width="600" height="600"/><g class="cls-2"><path class="cls-3" d="M260.18,257.1V240.82a123.43,123.43,0,0,0-87.44,223.47A123.46,123.46,0,0,1,260.18,257.1"/><path class="cls-3" d="M263.09,436.94c30.4,0,55.54-24.52,56.67-54.64L320,113.71l48.7,0-.07-.41a92.76,92.76,0,0,1-1.59-17H300l-.11,269a56.29,56.29,0,0,1-82.48,47.81c10.26,14.21,26.91,23.86,45.73,23.86"/><path class="cls-3" d="M460.44,205.42V189.66a92.77,92.77,0,0,1-50.85-15.12c13,15,30.75,26.58,50.85,30.88"/><path class="cls-4" d="M409.59,174.54a92.9,92.9,0,0,1-23-61.22H368.34a93.92,93.92,0,0,0,41.25,61.22"/><path class="cls-4" d="M243.53,306.21c-31.11,0-56.79,25.82-56.79,56.93,0,21.67,12.66,40.49,30.62,49.94a56.24,56.24,0,0,1,62.38-86.72V257.85a123.46,123.46,0,0,0-16.65-1.21c-1,0-1.94.05-2.91.08h-.26l-.18,51.86a52.61,52.61,0,0,0-16.21-2.38"/><path class="cls-4" d="M460.44,204.62l-.32-.06v51.82A160.17,160.17,0,0,1,366.65,226l0,137.11A123.51,123.51,0,0,1,172.74,464.29a123.45,123.45,0,0,0,213.89-84.11V243.78a159.56,159.56,0,0,0,93.37,30V206.7a93.39,93.39,0,0,1-19.56-2.08"/><path class="cls-5" d="M367.06,363.14V226.75a159.61,159.61,0,0,0,93.38,30V204.62a93.45,93.45,0,0,1-50.85-30.08,93.51,93.51,0,0,1-40.94-61.22H319.51l-.11,269a56.31,56.31,0,0,1-102,30.78,56.39,56.39,0,0,1,26.17-106.35,55.56,55.56,0,0,1,16.65,2.6V256.72C193.41,258.28,139.56,313,139.56,380.17a123.06,123.06,0,0,0,33.18,84.12A123.43,123.43,0,0,0,367.06,363.14"/></g></svg>